<svg xmlns="http://www.w3.org/2000/svg" width="16" height="16" viewBox="0 0 16 16"><path fill="#4B80C8" d="M13.207 6.16c0 .197.074.37.222.517a.71.71 0 0 0 .517.222.71.71 0 0 0 .518-.222 3.784 3.784 0 0 0 1.108-2.685A3.784 3.784 0 0 0 11.778.197c-1.01 0-1.971.394-2.686 1.109L1.306 9.092a3.784 3.784 0 0 0-1.109 2.686 3.784 3.784 0 0 0 3.795 3.794c1.01 0 1.97-.394 2.685-1.108L11.95 9.19l.025-.025c.788-.887.74-2.242-.099-3.105a2.254 2.254 0 0 0-1.601-.665c-.616 0-1.183.247-1.602.665l-4.336 4.337a.71.71 0 0 0-.222.517c0 .198.074.37.222.518a.76.76 0 0 0 1.034 0l4.337-4.337c.296-.295.813-.295 1.134 0a.79.79 0 0 1 0 1.134l-5.2 5.199a2.332 2.332 0 0 1-1.65.69 2.332 2.332 0 0 1-1.651-.69 2.332 2.332 0 0 1-.69-1.651c0-.616.246-1.207.69-1.651l7.786-7.786a2.332 2.332 0 0 1 1.65-.69c.617 0 1.208.246 1.652.69.911.911.911 2.39 0 3.302a.671.671 0 0 0-.222.517z"/></svg>