<svg width="256" height="53" viewBox="0 0 256 53" xmlns="http://www.w3.org/2000/svg"><title>footer_logo</title><g fill="#FFF" fill-rule="evenodd" opacity=".4"><path d="M39.032 41.34C29.676 47.862 24.526 44 24.526 44s-4.588-2.364-3.692-7.983c.645-4.034 4.035-5.28 5.923-5.236 1.679.038 5.622 1.416 4.807 5.236-.614 2.876-3.853 2.318-5.454 1.852-.342-.1-.644.27-.47.581 1.983 3.555 5.323 2.871 6.44 2.632 1.201-.258 6.438-3.487 4.463-9.614-1.674-5.193-5.58-7.04-11.073-7.21-7.391-.232-13.048 11.673-13.22 12.102-.171.43-1.602 3.651-3.776 3.95-2.453.335-5.056-2.366-6.905-4.416-.302-.334-.849 0-.683.42 3.71 9.377 12.855 16.012 23.554 16.012 12.403 0 22.716-8.92 24.892-20.692.005-.029-3.648 5.068-10.3 9.705"/><path d="M5.755 33.671s0 2.403 1.26 1.145c1.259-1.26 7.896-13.85 11.903-13.734 4.005.114 7.439 1.258 9.499.915 2.06-.343 2.06-.801 1.145-1.259-.917-.458-.459-2.403 1.373-1.488 1.83.915 8.354 1.946 12.704 11.56 0 0 .8 2.861 2.06 0 1.259-2.861 4.234-12.475-6.41-21.517 0 0-5.95-5.837-16.824-5.265 0 0-2.174-.344-1.259-2.289.916-1.945-1.716-.915-1.716-.915S9.418 3.34 8.159 9.064C6.9 14.786-4.201 18.45 5.069 31.04c0 0 1.258 1.144.686 2.632" opacity=".5"/><path d="M119.09 16.86h11.031c.756 0 .952.533.952 1.093 0 .532-.196 1.064-.952 1.064h-4.312v16.66c0 .84-.616 1.036-1.204 1.036s-1.176-.196-1.176-1.036v-16.66h-4.34c-.756 0-.952-.532-.952-1.064 0-.56.196-1.092.952-1.092zm14.223 17.025V19.437c0-1.4.392-2.576 2.296-2.576h8.428c.756 0 .952.532.952 1.092 0 .532-.196 1.064-.952 1.064h-7.588c-.56 0-.756.224-.756.784v5.432h6.608c.728 0 .896.504.896 1.036s-.168 1.036-.896 1.036h-6.608v6.216c0 .56.196.784.756.784h7.588c.756 0 .952.532.952 1.092 0 .532-.196 1.064-.952 1.064h-8.428c-1.904 0-2.296-1.176-2.296-2.576zm23.604-16.072c.448-.868.896-1.064 2.044-1.064.644 0 1.064.224.588 1.064l-4.788 8.232 5.572 9.632c.476.812-.364 1.036-1.008 1.036s-1.232.028-1.848-1.036l-4.144-7.448-4.172 7.448c-.588 1.064-.98 1.036-1.596 1.036-.644 0-1.512-.224-1.036-1.036l5.488-9.408-4.928-8.456c-.476-.84.196-1.064.812-1.064 1.176 0 1.596.196 2.044 1.064l3.5 6.44 3.472-6.44zm11.62-1.288c3.78 0 6.552 2.38 6.832 6.272.084.672-.392.98-1.036 1.036-.644 0-1.12-.252-1.204-.868-.364-2.436-1.764-4.592-4.592-4.592-4.844 0-5.516 4.592-5.516 8.288 0 3.696.672 8.26 5.516 8.26 2.828 0 4.228-2.128 4.592-4.592.084-.588.56-.868 1.204-.84.616.028 1.12.336 1.036 1.036-.28 3.556-2.884 6.244-6.832 6.244-5.768 0-8.064-4.144-8.064-10.108s2.296-10.136 8.064-10.136zm9.38 17.36V19.437c0-1.4.392-2.576 2.296-2.576h8.428c.756 0 .952.532.952 1.092 0 .532-.196 1.064-.952 1.064h-7.588c-.56 0-.756.224-.756.784v5.432h6.608c.728 0 .896.504.896 1.036s-.168 1.036-.896 1.036h-6.608v6.216c0 .56.196.784.756.784h7.588c.756 0 .952.532.952 1.092 0 .532-.196 1.064-.952 1.064h-8.428c-1.904 0-2.296-1.176-2.296-2.576zm16.856 1.792c0 .812-.616 1.036-1.204 1.036s-1.176-.224-1.176-1.036v-16.24c0-1.4.364-2.576 2.296-2.576h4.424c3.5 0 6.02 2.212 6.02 5.852 0 3.416-2.352 5.796-5.768 5.796h-4.592v7.168zm0-9.212h4.368c2.24 0 3.584-1.54 3.584-3.752 0-2.1-1.26-3.808-3.416-3.808h-3.78c-.56 0-.756.224-.756.812v6.748zm12.88-7.028c0-1.4.392-2.576 2.296-2.576h5.208c2.912 0 5.46 1.568 5.46 4.76 0 2.24-1.176 3.808-3.22 4.424 2.38.644 3.752 2.492 3.752 4.984 0 3.64-2.576 5.432-5.992 5.432h-5.208c-1.904 0-2.296-1.176-2.296-2.576V19.437zm7.392 15.008c2.072 0 3.724-1.232 3.724-3.5 0-2.66-1.708-3.808-4.088-3.808h-4.732v6.468c0 .56.196.84.756.84h4.34zm-5.096-9.184h4.144c2.296 0 4.172-.784 4.172-3.388 0-2.156-1.652-3.024-3.584-3.024h-3.976c-.56 0-.756.28-.756.868v5.544zm16.38-7.448v14.644c.364-.784.7-1.372 1.26-2.268l7.924-12.908c.224-.392.644-.532 1.064-.532.616 0 1.204.224 1.204 1.064v17.864c0 .812-.588 1.036-1.204 1.036-.588 0-1.176-.224-1.176-1.036v-14.7c-.252.644-.672 1.4-1.064 2.044l-8.148 13.216c-.196.364-.616.476-1.036.476-.616 0-1.204-.224-1.204-1.036V17.813c0-.84.588-1.064 1.204-1.064.588 0 1.176.224 1.176 1.064zm22.316-1.288c3.78 0 6.552 2.38 6.832 6.272.084.672-.392.98-1.036 1.036-.644 0-1.12-.252-1.204-.868-.364-2.436-1.764-4.592-4.592-4.592-4.844 0-5.516 4.592-5.516 8.288 0 3.696.672 8.26 5.516 8.26 2.828 0 4.228-2.128 4.592-4.592.084-.588.56-.868 1.204-.84.616.028 1.12.336 1.036 1.036-.28 3.556-2.884 6.244-6.832 6.244-5.768 0-8.064-4.144-8.064-10.108s2.296-10.136 8.064-10.136z"/><path d="M66.645 17.813l5.964 17.864c.252.812-.252 1.036-.868 1.036-.84 0-1.344-.196-1.596-1.036l-1.596-4.928h-6.832l-1.596 4.928c-.252.84-.756 1.036-1.624 1.036-.588 0-1.092-.224-.84-1.036l5.964-17.864c.252-.728.756-1.064 1.512-1.064s1.26.336 1.512 1.064zM62.305 28.9h5.656l-1.904-5.964c-.392-1.204-.644-2.408-.924-3.612-.28 1.204-.532 2.408-.924 3.612L62.305 28.9zm15.008-11.087v7.084c2.66-.056 3.696-1.624 4.704-3.416.728-1.26 1.288-2.716 2.184-3.976.42-.588.952-.84 1.708-.7s.952.616.392 1.484c-.784 1.148-1.512 2.576-2.212 3.948-.7 1.372-2.016 2.744-3.5 3.36 2.52.532 4.004 2.8 4.732 5.068.756 2.408 1.092 3.5 1.82 4.872.336.616.028.98-.644 1.12-.616.14-1.176-.084-1.456-.42-.812-1.064-1.26-2.856-1.792-4.424-1.064-3.192-2.296-5.236-5.936-5.124v8.988c0 .812-.616 1.036-1.204 1.036s-1.176-.224-1.176-1.036V17.813c0-.84.588-1.064 1.176-1.064s1.204.224 1.204 1.064zm12.488 1.624c0-1.4.392-2.576 2.296-2.576h5.208c2.912 0 5.46 1.568 5.46 4.76 0 2.24-1.176 3.808-3.22 4.424 2.38.644 3.752 2.492 3.752 4.984 0 3.64-2.576 5.432-5.992 5.432h-5.208c-1.904 0-2.296-1.176-2.296-2.576V19.437zm7.392 15.008c2.072 0 3.724-1.232 3.724-3.5 0-2.66-1.708-3.808-4.088-3.808h-4.732v6.468c0 .56.196.84.756.84h4.34zm-5.096-9.184h4.144c2.296 0 4.172-.784 4.172-3.388 0-2.156-1.652-3.024-3.584-3.024h-3.976c-.56 0-.756.28-.756.868v5.544zm21.673-7.448l5.963 17.864c.252.812-.252 1.036-.868 1.036-.84 0-1.344-.196-1.596-1.036l-1.596-4.928h-6.832l-1.596 4.928c-.252.84-.756 1.036-1.624 1.036-.588 0-1.092-.224-.84-1.036l5.964-17.864c.252-.728.756-1.064 1.512-1.064s1.26.336 1.512 1.064zM109.43 28.9h5.655l-1.904-5.964c-.392-1.204-.644-2.408-.924-3.612-.28 1.204-.532 2.408-.924 3.612L109.43 28.9z" opacity=".5"/></g></svg>