<svg width="146" height="47" viewBox="0 0 146 47" xmlns="http://www.w3.org/2000/svg"><title>footer_logo</title><g fill="#FFF" fill-rule="evenodd" opacity=".4"><path d="M34.225 36.566c-8.388 5.848-13.005 2.386-13.005 2.386s-4.113-2.12-3.31-7.157c.578-3.617 3.618-4.733 5.31-4.694 1.505.035 5.04 1.27 4.31 4.695-.55 2.578-3.454 2.078-4.89 1.66-.307-.09-.577.242-.42.52 1.776 3.188 4.77 2.575 5.772 2.36 1.077-.23 5.772-3.125 4-8.62-1.5-4.654-5-6.31-9.926-6.463-6.626-.206-11.697 10.466-11.85 10.85-.154.386-1.437 3.273-3.386 3.54-2.2.302-4.533-2.12-6.19-3.957-.27-.3-.76 0-.612.375 3.325 8.408 11.524 14.356 21.115 14.356 11.12 0 20.365-7.996 22.316-18.55.003-.026-3.272 4.543-9.235 8.7"/><path d="M4.393 29.692s0 2.154 1.128 1.026c1.13-1.13 7.08-12.415 10.672-12.313 3.59.103 6.67 1.13 8.516.82 1.847-.307 1.847-.717 1.026-1.127-.82-.41-.41-2.155 1.232-1.334 1.64.82 7.49 1.744 11.39 10.362 0 0 .717 2.566 1.846 0 1.128-2.564 3.795-11.183-5.747-19.29 0 0-5.335-5.232-15.082-4.72 0 0-1.95-.307-1.13-2.05.822-1.745-1.538-.82-1.538-.82S7.675 2.5 6.547 7.63c-1.128 5.13-11.08 8.413-2.77 19.7 0 0 1.128 1.026.616 2.36" opacity=".5"/><path d="M58.296 15.987v5.704h5.208c3.75 0 6.386 2.388 6.386 6.2 0 4-2.82 6.542-6.665 6.542h-4.93c-2.107 0-2.54-1.302-2.54-2.852V15.584c0-1.55.433-2.852 2.54-2.852h8.867c.837 0 1.054.59 1.054 1.21 0 .588-.217 1.177-1.054 1.177h-8.03c-.62 0-.836.247-.836.867zm0 8.09v7.1c0 .62.217.868.837.868h4.278c2.388 0 3.814-1.83 3.814-4.154 0-2.48-1.52-3.812-4-3.812h-4.928zm18.586 9.487c0 .9-.682 1.147-1.333 1.147-.652 0-1.303-.247-1.303-1.146v-17.98c0-1.55.403-2.852 2.542-2.852h4.897c3.875 0 6.665 2.45 6.665 6.48 0 3.78-2.604 6.416-6.386 6.416H76.88v7.936zm0-10.2h4.836c2.48 0 3.968-1.704 3.968-4.153 0-2.324-1.395-4.215-3.782-4.215H77.72c-.62 0-.838.248-.838.9v7.47zm18.463-9.578c0-.93-.65-1.178-1.302-1.178-.682 0-1.333.248-1.333 1.178v19.778c0 .9.65 1.147 1.333 1.147.465 0 .93-.123 1.147-.526l9.02-14.632c.435-.713.9-1.55 1.18-2.263v16.274c0 .9.65 1.147 1.3 1.147.683 0 1.334-.247 1.334-1.146V13.786c0-.93-.65-1.178-1.333-1.178-.464 0-.93.155-1.177.59l-8.773 14.29c-.62.992-.992 1.643-1.395 2.51V13.787zm20.91 0c0-.93-.68-1.178-1.332-1.178-.65 0-1.302.248-1.302 1.178v19.778c0 .9.652 1.147 1.303 1.147.65 0 1.333-.247 1.333-1.146v-9.95c4.03-.125 5.394 2.138 6.572 5.672.59 1.736 1.085 3.72 1.984 4.898.31.372.93.62 1.612.465.744-.156 1.085-.56.713-1.24-.806-1.52-1.178-2.73-2.015-5.395-.806-2.51-2.45-5.022-5.24-5.61 1.644-.683 3.1-2.202 3.876-3.72.775-1.52 1.58-3.1 2.45-4.372.62-.96.402-1.488-.435-1.643-.837-.155-1.426.124-1.89.775-.993 1.395-1.613 3.007-2.42 4.402-1.115 1.984-2.262 3.72-5.207 3.782v-7.844zm21.842-1.426c-6.386 0-8.928 4.62-8.928 11.222 0 6.603 2.54 11.19 8.927 11.19 4.37 0 7.254-2.975 7.564-6.912.094-.775-.464-1.116-1.146-1.147-.713-.03-1.24.28-1.333.93-.402 2.728-1.952 5.084-5.083 5.084-5.363 0-6.107-5.053-6.107-9.145s.744-9.176 6.107-9.176c3.13 0 4.68 2.387 5.084 5.084.094.682.62.96 1.334.96.713-.06 1.24-.402 1.147-1.146-.31-4.31-3.378-6.944-7.563-6.944z"/></g></svg>