<svg xmlns="http://www.w3.org/2000/svg" width="27" height="14" viewBox="0 0 27 14"><path d="M7.103 13.828h16.625a.64.64 0 0 0 .628-.534L26.242.723a.58.58 0 0 0-.157-.503.742.742 0 0 0-.503-.22H8.988a.64.64 0 0 0-.628.534L6.474 13.105a.58.58 0 0 0 .157.503c.094.126.283.22.472.22zm17.19-12.57l-7.888 6.379-6.254-6.38h14.143zM9.366 2.262l6.537 6.662a.62.62 0 0 0 .44.189.691.691 0 0 0 .409-.126l7.92-6.38-1.509 9.963H7.825l1.54-10.308zM0 10.371A.63.63 0 0 0 .629 11h4.085a.63.63 0 0 0 .629-.629.63.63 0 0 0-.629-.628H.63a.63.63 0 0 0-.63.627zm2.828-2.828h2.515a.63.63 0 0 0 .628-.629.63.63 0 0 0-.628-.628H2.828a.63.63 0 0 0-.628.628.63.63 0 0 0 .628.629zM6.6 3.457a.63.63 0 0 0-.629-.629h-.628a.63.63 0 0 0-.629.629.63.63 0 0 0 .629.629h.628a.63.63 0 0 0 .629-.629z" fill="#FFF"/></svg>