<svg width="257" height="55" viewBox="0 0 257 55" xmlns="http://www.w3.org/2000/svg"><title>logo</title><g fill="none" fill-rule="evenodd"><path d="M40.249 43.002c-9.864 6.878-15.294 2.806-15.294 2.806s-4.837-2.492-3.892-8.417c.68-4.253 4.254-5.566 6.245-5.52 1.77.04 5.927 1.493 5.068 5.52-.648 3.032-4.063 2.445-5.751 1.952-.36-.105-.678.285-.495.613 2.09 3.748 5.611 3.027 6.789 2.775 1.267-.272 6.788-3.676 4.705-10.136-1.764-5.475-5.882-7.42-11.674-7.602-7.792-.243-13.755 12.308-13.936 12.76-.181.453-1.69 3.849-3.982 4.163-2.586.354-5.33-2.493-7.28-4.654-.318-.352-.895 0-.72.441 3.911 9.888 13.553 16.883 24.832 16.883 13.077 0 23.95-9.404 26.244-21.816.005-.03-3.847 5.343-10.86 10.232" fill="#44D3A8"/><path d="M5.166 34.918s0 2.534 1.327 1.207c1.328-1.328 8.326-14.6 12.55-14.48 4.222.12 7.842 1.327 10.014.965 2.172-.362 2.172-.845 1.207-1.327-.966-.483-.483-2.534 1.448-1.569 1.93.965 8.808 2.051 13.394 12.187 0 0 .844 3.017 2.172 0 1.327-3.016 4.464-13.152-6.758-22.684 0 0-6.274-6.154-17.738-5.551 0 0-2.292-.362-1.327-2.413.965-2.051-1.81-.965-1.81-.965S9.027 2.942 7.7 8.975C6.373 15.008-5.332 18.87 4.442 32.143c0 0 1.327 1.206.724 2.775M119.787 17.04h11.032c.756 0 .952.532.952 1.092 0 .532-.196 1.064-.952 1.064h-4.312v16.66c0 .84-.616 1.036-1.204 1.036s-1.176-.196-1.176-1.036v-16.66h-4.34c-.756 0-.952-.532-.952-1.064 0-.56.196-1.092.952-1.092zm14.224 17.024V19.616c0-1.4.392-2.576 2.296-2.576h8.428c.756 0 .952.532.952 1.092 0 .532-.196 1.064-.952 1.064h-7.588c-.56 0-.756.224-.756.784v5.432H143c.728 0 .896.504.896 1.036s-.168 1.036-.896 1.036h-6.608V33.7c0 .56.196.784.756.784h7.588c.756 0 .952.532.952 1.092 0 .532-.196 1.064-.952 1.064h-8.428c-1.904 0-2.296-1.176-2.296-2.576zm23.604-16.072c.448-.868.896-1.064 2.044-1.064.644 0 1.064.224.588 1.064l-4.788 8.232 5.572 9.632c.476.812-.364 1.036-1.008 1.036s-1.232.028-1.848-1.036l-4.144-7.448-4.172 7.448c-.588 1.064-.98 1.036-1.596 1.036-.644 0-1.512-.224-1.036-1.036l5.488-9.408-4.928-8.456c-.476-.84.196-1.064.812-1.064 1.176 0 1.596.196 2.044 1.064l3.5 6.44 3.472-6.44zm11.62-1.288c3.78 0 6.552 2.38 6.832 6.272.084.672-.392.98-1.036 1.036-.644 0-1.12-.252-1.204-.868-.364-2.436-1.764-4.592-4.592-4.592-4.844 0-5.516 4.592-5.516 8.288 0 3.696.672 8.26 5.516 8.26 2.828 0 4.228-2.128 4.592-4.592.084-.588.56-.868 1.204-.84.616.028 1.12.336 1.036 1.036-.28 3.556-2.884 6.244-6.832 6.244-5.768 0-8.064-4.144-8.064-10.108s2.296-10.136 8.064-10.136zm9.38 17.36V19.616c0-1.4.392-2.576 2.296-2.576h8.428c.756 0 .952.532.952 1.092 0 .532-.196 1.064-.952 1.064h-7.588c-.56 0-.756.224-.756.784v5.432h6.608c.728 0 .896.504.896 1.036s-.168 1.036-.896 1.036h-6.608V33.7c0 .56.196.784.756.784h7.588c.756 0 .952.532.952 1.092 0 .532-.196 1.064-.952 1.064h-8.428c-1.904 0-2.296-1.176-2.296-2.576zm16.856 1.792c0 .812-.616 1.036-1.204 1.036s-1.176-.224-1.176-1.036v-16.24c0-1.4.364-2.576 2.296-2.576h4.424c3.5 0 6.02 2.212 6.02 5.852 0 3.416-2.352 5.796-5.768 5.796h-4.592v7.168zm0-9.212h4.368c2.24 0 3.584-1.54 3.584-3.752 0-2.1-1.26-3.808-3.416-3.808h-3.78c-.56 0-.756.224-.756.812v6.748zm12.88-7.028c0-1.4.392-2.576 2.296-2.576h5.208c2.912 0 5.46 1.568 5.46 4.76 0 2.24-1.176 3.808-3.22 4.424 2.38.644 3.752 2.492 3.752 4.984 0 3.64-2.576 5.432-5.992 5.432h-5.208c-1.904 0-2.296-1.176-2.296-2.576V19.616zm7.392 15.008c2.072 0 3.724-1.232 3.724-3.5 0-2.66-1.708-3.808-4.088-3.808h-4.732v6.468c0 .56.196.84.756.84h4.34zm-5.096-9.184h4.144c2.296 0 4.172-.784 4.172-3.388 0-2.156-1.652-3.024-3.584-3.024h-3.976c-.56 0-.756.28-.756.868v5.544zm16.38-7.448v14.644c.364-.784.7-1.372 1.26-2.268l7.924-12.908c.224-.392.644-.532 1.064-.532.616 0 1.204.224 1.204 1.064v17.864c0 .812-.588 1.036-1.204 1.036-.588 0-1.176-.224-1.176-1.036v-14.7c-.252.644-.672 1.4-1.064 2.044l-8.148 13.216c-.196.364-.616.476-1.036.476-.616 0-1.204-.224-1.204-1.036V17.992c0-.84.588-1.064 1.204-1.064.588 0 1.176.224 1.176 1.064zm22.316-1.288c3.78 0 6.552 2.38 6.832 6.272.084.672-.392.98-1.036 1.036-.644 0-1.12-.252-1.204-.868-.364-2.436-1.764-4.592-4.592-4.592-4.844 0-5.516 4.592-5.516 8.288 0 3.696.672 8.26 5.516 8.26 2.828 0 4.228-2.128 4.592-4.592.084-.588.56-.868 1.204-.84.616.028 1.12.336 1.036 1.036-.28 3.556-2.884 6.244-6.832 6.244-5.768 0-8.064-4.144-8.064-10.108s2.296-10.136 8.064-10.136z" fill="#4B80C8"/><path d="M67.343 17.992l5.964 17.864c.252.812-.252 1.036-.868 1.036-.84 0-1.344-.196-1.596-1.036l-1.596-4.928h-6.832l-1.596 4.928c-.252.84-.756 1.036-1.624 1.036-.588 0-1.092-.224-.84-1.036l5.964-17.864c.252-.728.756-1.064 1.512-1.064s1.26.336 1.512 1.064zm-4.34 11.088h5.656l-1.904-5.964c-.392-1.204-.644-2.408-.924-3.612-.28 1.204-.532 2.408-.924 3.612l-1.904 5.964zm15.008-11.088v7.084c2.66-.056 3.696-1.624 4.704-3.416.728-1.26 1.288-2.716 2.184-3.976.42-.588.952-.84 1.708-.7s.952.616.392 1.484c-.784 1.148-1.512 2.576-2.212 3.948-.7 1.372-2.016 2.744-3.5 3.36 2.52.532 4.004 2.8 4.732 5.068.756 2.408 1.092 3.5 1.82 4.872.336.616.028.98-.644 1.12-.616.14-1.176-.084-1.456-.42-.812-1.064-1.26-2.856-1.792-4.424-1.064-3.192-2.296-5.236-5.936-5.124v8.988c0 .812-.616 1.036-1.204 1.036s-1.176-.224-1.176-1.036V17.992c0-.84.588-1.064 1.176-1.064s1.204.224 1.204 1.064zM90.5 19.616c0-1.4.391-2.576 2.295-2.576h5.208c2.912 0 5.46 1.568 5.46 4.76 0 2.24-1.176 3.808-3.22 4.424 2.38.644 3.752 2.492 3.752 4.984 0 3.64-2.576 5.432-5.992 5.432h-5.208c-1.904 0-2.296-1.176-2.296-2.576V19.616zm7.391 15.008c2.072 0 3.724-1.232 3.724-3.5 0-2.66-1.708-3.808-4.088-3.808h-4.732v6.468c0 .56.196.84.756.84h4.34zm-5.096-9.184h4.144c2.296 0 4.172-.784 4.172-3.388 0-2.156-1.652-3.024-3.584-3.024h-3.976c-.56 0-.756.28-.756.868v5.544zm21.672-7.448l5.964 17.864c.252.812-.252 1.036-.868 1.036-.84 0-1.344-.196-1.596-1.036l-1.596-4.928h-6.832l-1.596 4.928c-.252.84-.756 1.036-1.624 1.036-.588 0-1.092-.224-.84-1.036l5.964-17.864c.252-.728.756-1.064 1.512-1.064s1.26.336 1.512 1.064zm-4.34 11.088h5.656l-1.904-5.964c-.392-1.204-.644-2.408-.924-3.612-.28 1.204-.532 2.408-.924 3.612l-1.904 5.964z" fill="#44D3A8"/></g></svg>