<svg xmlns="http://www.w3.org/2000/svg" width="49" height="65" viewBox="0 0 49 65"><g fill="none" fill-rule="evenodd"><path fill="#FFF" d="M24.39 65.04c16.26-18.12 24.39-31.67 24.39-40.65C48.78 10.92 37.86 0 24.39 0S0 10.92 0 24.39c0 8.98 8.13 22.53 24.39 40.65z"/><path fill="#44D3A8" d="M32.101 33.186c-5.338 3.722-8.277 1.518-8.277 1.518s-2.618-1.348-2.106-4.555a3.414 3.414 0 0 1 3.38-2.987c.957.022 3.207.808 2.742 2.987-.35 1.641-2.198 1.323-3.112 1.057-.195-.057-.367.154-.268.332 1.131 2.028 3.037 1.638 3.674 1.501.686-.147 3.674-1.99 2.547-5.485-.955-2.963-3.184-4.017-6.318-4.115-4.217-.131-7.445 6.661-7.543 6.906-.098.245-.914 2.083-2.155 2.253-1.399.192-2.884-1.35-3.94-2.519-.172-.19-.484 0-.39.24 2.118 5.35 7.336 9.136 13.44 9.136 7.077 0 12.961-5.09 14.203-11.807.003-.016-2.082 2.892-5.877 5.538"/><path fill="#4B80C8" d="M13.114 28.81s0 1.372.718.654c.719-.719 4.506-7.902 6.792-7.837 2.286.065 4.245.719 5.42.523 1.176-.196 1.176-.458.653-.718-.522-.262-.26-1.372.784-.85 1.045.523 4.767 1.11 7.249 6.596 0 0 .457 1.633 1.175 0 .718-1.632 2.416-7.118-3.657-12.277 0 0-3.396-3.33-9.6-3.004 0 0-1.24-.196-.718-1.306s-.98-.522-.98-.522-5.746 1.436-6.464 4.702c-.719 3.265-7.053 5.354-1.764 12.538 0 0 .719.653.392 1.502"/></g></svg>