<svg xmlns="http://www.w3.org/2000/svg" width="15" height="15" viewBox="0 0 15 15"><path fill="#4B80C8" d="M4.22.637c-.141 0-.272.023-.388.068a7.283 7.283 0 0 0-3.103 2.3l-.123.155-.006.2c-.064 2.716 1.157 5.532 3.35 7.722l.041.046c2.131 2.13 4.874 3.351 7.527 3.351l.399-.007.156-.122a7.28 7.28 0 0 0 2.3-3.102c.208-.536-.089-1.39-.559-1.602-1.059-.48-1.885-.746-3.274-1.056a1.057 1.057 0 0 0-.23-.023c-.083 0-.815.013-1.105.465l-.642 1.03a.158.158 0 0 1-.06.009.596.596 0 0 1-.33-.126A14.688 14.688 0 0 1 6.54 8.552c-.527-.537-1-1.09-1.407-1.649-.136-.187-.133-.352-.142-.36l1.053-.668c.426-.268.527-1.033.44-1.36-.298-1.13-.708-2.308-1.033-3.207C5.266.8 4.543.637 4.22.637zm0 1.191a.55.55 0 0 1 .161.035c.307.855.678 1.93.94 2.909a.76.76 0 0 1-.024.164l-.941.598a1.14 1.14 0 0 0-.515.77c-.083.428.036.903.328 1.303.441.604.952 1.204 1.527 1.788a15.826 15.826 0 0 0 1.775 1.513c.71.52 1.697.424 2.07-.18l.6-.945c.048-.013.108-.024.14-.03 1.246.279 2.003.518 2.925.928.026.059.049.13.055.136a6.07 6.07 0 0 1-1.77 2.471c-2.33-.009-4.755-1.102-6.639-2.985l-.058-.06C2.91 8.363 1.8 5.888 1.789 3.587a6.106 6.106 0 0 1 2.43-1.758zm8.07.28a.594.594 0 0 0-.422.175L9.235 4.914 9.132 3.3a.597.597 0 0 0-1.19.077L8.13 6.31c.02.298.258.537.557.556l2.932.189h.04a.596.596 0 0 0 .037-1.19l-1.62-.104 2.635-2.635a.595.595 0 0 0-.421-1.017z"/></svg>