<svg xmlns="http://www.w3.org/2000/svg" width="39" height="29" viewBox="0 0 39 29"><path fill="#44d4a8" d="M7.235.144C3.263.144.007 3.179.007 7.372c0 4.524 3.256 7.228 7.228 7.228 1.6 0 3.035-.607 4.194-1.49.22.662.33 1.38.33 2.373 0 4.414-3.972 9.16-8.607 11.09l1.049 2.042c8-3.752 11.642-10.097 11.642-17.436 0-1.82-.331-4.966-1.931-7.449C12.532 1.58 10.49.144 7.235.144zm22.52 0c-3.973 0-7.229 3.035-7.229 7.228 0 4.524 3.256 7.228 7.228 7.228 1.6 0 3.035-.607 4.194-1.49.22.662.33 1.38.33 2.373 0 4.414-3.972 9.16-8.607 11.09l1.049 2.042c8-3.752 11.642-10.097 11.642-17.436 0-1.82-.331-4.966-1.931-7.449C35.05 1.58 33.01.144 29.754.144z"/></svg>