<svg xmlns="http://www.w3.org/2000/svg" width="62" height="54" viewBox="0 0 62 54"><g fill="none" fill-rule="evenodd"><path fill="#4B80C8" fill-rule="nonzero" d="M18.586.911c-4.367 0-7.94 3.486-7.94 7.755v.02c.003.23 0 .465.004.695H3.41c-1.791 0-3.334 1.392-3.334 3.176 0 1.785 1.543 3.177 3.334 3.177h7.274c.049 8.117.03 16.285.03 24.412a1.059 1.059 0 0 0 1.062 1.059h5.29v9.516c0 1.73 1.445 3.14 3.176 3.14h29.644c1.731 0 3.176-1.41 3.176-3.14V15.734h5.046c1.79 0 3.341-1.392 3.341-3.177 0-1.784-1.55-3.176-3.341-3.176h-5.1c.005-.218-.003-.31-.016-.62a1.059 1.059 0 0 0-.012-.124c.008.053-.007-.063 0-.03C52.939 4.372 49.395.92 45.05.92H18.582l.004-.009zm0 2.13h26.469c3.25 0 5.823 2.547 5.823 5.637 0 .068.007.136.02.203-.072-.335-.072-.317-.008.09 0 .11-.012.27-.02.41h-2.068v-.434a3.18 3.18 0 0 0-3.164-3.164c-1.735 0-3.16 1.432-3.164 3.164l-.033 15.256H12.854c.004-5.19-.014-10.376-.09-15.525 0-3.09 2.571-5.637 5.822-5.637zm27.052 4.86c.598 0 1.046.448 1.046 1.046v.434h-2.093v-.43c.002-.601.449-1.05 1.047-1.05zM3.413 11.499h7.245c.008.703.011 1.412.017 2.117H3.413c-.735 0-1.22-.497-1.22-1.059 0-.561.485-1.058 1.22-1.058zm41.174 0h13.524c.735 0 1.224.497 1.224 1.058 0 .562-.49 1.06-1.224 1.06H44.579l.008-2.118zm-.012 4.235h6.365V50.72c0 .574-.444 1.022-1.06 1.022H20.238c-.615 0-1.06-.448-1.06-1.022V41.2l24.285-.046a1.059 1.059 0 0 0 1.055-1.054l.058-24.367zM12.846 26.32h4.148v4.218h-4.156l.008-4.218zm6.266 0h4.235v4.218h-4.235V26.32zm6.352 0h4.235v4.218h-4.235V26.32zm6.352 0h4.235v4.218h-4.235V26.32zm6.353 0h4.264l-.009 4.218H38.17V26.32zm-25.331 6.336H42.42l-.016 6.385-29.583.054c.002-2.14.012-4.293.017-6.44z"/><path fill="#44D3A8" d="M14 27.157h2v2h-2zm6 0h2v2h-2zm6 0h2v2h-2zm7 0h2v2h-2zm7 0h2v2h-2z"/></g></svg>