<svg xmlns="http://www.w3.org/2000/svg" width="66" height="56" viewBox="0 0 66 56"><g fill="none" stroke="#F2F9FC"><path fill="#4B80C8" d="M64.347 50.493c-3.157-2.444-7.423-2.444-10.58 0-2.047 1.555-4.777 1.555-6.782 0-3.157-2.444-7.423-2.444-10.58 0-2.047 1.555-4.777 1.555-6.782 0-3.156-2.444-7.422-2.444-10.579 0-2.047 1.555-4.777 1.555-6.782 0-3.157-2.444-7.423-2.444-10.58 0-.682.533-.853 1.555-.34 2.31a1.57 1.57 0 0 0 2.217.355c2.048-1.555 4.778-1.555 6.783 0 3.157 2.444 7.422 2.444 10.58 0 2.047-1.555 4.777-1.555 6.782 0 1.578 1.2 3.455 1.822 5.29 1.822 1.833 0 3.71-.622 5.289-1.822 2.047-1.555 4.777-1.555 6.782 0 3.157 2.444 7.423 2.444 10.58 0 2.047-1.555 4.777-1.555 6.782 0 .725.533 1.706.4 2.218-.355.555-.711.384-1.733-.298-2.31zM24.803 33.788H3.474c-.896 0-1.578.755-1.578 1.644 0 .933.725 1.643 1.578 1.643h21.499v-3.287h-.17zm38.605 0h-9.171v3.287h9.171c.896 0 1.578-.755 1.578-1.643 0-.889-.725-1.644-1.578-1.644z"/><path fill="#4B80C8" d="M64.347 43.784c-3.157-2.444-7.423-2.444-10.58 0-2.047 1.555-4.777 1.555-6.782 0-3.157-2.444-7.423-2.444-10.58 0-2.047 1.555-4.777 1.555-6.782 0-3.156-2.444-7.422-2.444-10.579 0-2.047 1.555-4.777 1.555-6.782 0-3.157-2.444-7.423-2.444-10.58 0-.682.533-.853 1.555-.34 2.31a1.57 1.57 0 0 0 2.217.356c2.048-1.555 4.778-1.555 6.783 0 3.157 2.443 7.422 2.443 10.58 0 2.047-1.555 4.777-1.555 6.782 0 1.578 1.2 3.455 1.821 5.29 1.821 1.833 0 3.71-.622 5.289-1.821 2.047-1.555 4.777-1.555 6.782 0 3.157 2.443 7.423 2.443 10.58 0 2.047-1.555 4.777-1.555 6.782 0 .725.533 1.706.4 2.218-.356.555-.71.384-1.732-.298-2.31z"/><path fill="#44D3A8" d="M31.5 37.075h16.125v2.977c.469.267.896.578 1.322.889a2.152 2.152 0 0 0 1.834.444V9.708a8.89 8.89 0 0 0-.64-3.332c-.426-1.022-.98-1.91-1.748-2.71a8.21 8.21 0 0 0-2.603-1.822 7.91 7.91 0 0 0-6.356 0 8.21 8.21 0 0 0-2.602 1.822c-.767.8-1.322 1.688-1.749 2.71a8.89 8.89 0 0 0-.64 3.332c0 .933.726 1.644 1.579 1.644s1.578-.756 1.578-1.644a5.6 5.6 0 0 1 .384-2.044c.256-.622.597-1.2 1.067-1.644a4.91 4.91 0 0 1 1.578-1.11c1.237-.533 2.687-.533 3.882 0 .597.266 1.151.622 1.578 1.11.47.49.81 1.022 1.067 1.644.255.622.383 1.333.383 2.044v6.62H31.5v-6.62a8.89 8.89 0 0 0-.64-3.332c-.426-1.022-.98-1.91-1.749-2.71a8.21 8.21 0 0 0-2.602-1.822 7.91 7.91 0 0 0-6.356 0 8.21 8.21 0 0 0-2.602 1.822c-.768.8-1.322 1.688-1.749 2.71a8.89 8.89 0 0 0-.64 3.332c0 .933.725 1.644 1.579 1.644.853 0 1.578-.756 1.578-1.644a5.6 5.6 0 0 1 .384-2.044c.256-.622.597-1.2 1.066-1.644a4.91 4.91 0 0 1 1.579-1.11c1.237-.533 2.687-.533 3.882 0 .597.266 1.151.622 1.578 1.11.47.49.81 1.022 1.066 1.644.256.622.384 1.333.384 2.044v29.411c1.11.4 2.176.977 3.157 1.733v-3.777h.085zm0-17.415h16.125v5.42H31.5v-5.42zm0 8.708h16.125v5.42H31.5v-5.42z"/></g></svg>