<svg xmlns="http://www.w3.org/2000/svg" width="129" height="129" viewBox="0 0 129 129"><g fill="none" fill-rule="evenodd"><circle cx="64.5" cy="64.5" r="64.5" fill="#F2F9FC"/><path fill="#44D3A8" d="M62.633 63.346a1.056 1.056 0 1 0-1.495 1.493 1.056 1.056 0 0 0 1.495-1.493zm3.865 3.866a1.056 1.056 0 1 0-1.494 1.493 1.056 1.056 0 0 0 1.494-1.493zm-6.829-35.977l18.603 18.603a.73.73 0 1 0 1.034-1.034L60.703 30.201a.73.73 0 1 0-1.034 1.034zm20.671 20.67l3.616 3.617a.73.73 0 1 0 1.034-1.034l-3.617-3.617a.73.73 0 1 0-1.034 1.034z"/><path fill="#4B80C8" fill-rule="nonzero" stroke="#4B80C8" stroke-width=".6" d="M40.02 86.532c-1.376 1.376-1.646 3.262-.615 4.293 1.032 1.032 2.918.76 4.294-.615 1.376-1.376 1.647-3.262.615-4.294-1.031-1.031-2.917-.76-4.293.616zm2.645 2.644c-.838.837-1.846.997-2.227.615-.381-.381-.222-1.389.616-2.226.837-.838 1.845-.997 2.226-.616.382.381.222 1.39-.615 2.227zM60.059 24.39l-13.057 14.8c-3.26 3.72-3.048 9.4.484 12.933l9.6 9.599-.715.714.116.423c.001.032.134 3.339-3.081 7.039-1.258 1.448-3.447 2.893-5.895 4.417-.484.301-1.225.774-1.644 1.014-1.984 1.143-4.009 2.621-6.185 4.798-6.323 6.322-5.505 11.627-3.448 13.685 2.361 2.361 7.402 2.837 13.763-3.525 2.177-2.176 3.482-4.06 4.864-6.373.301-.476.541-.993.824-1.448 1.556-2.49 2.9-4.641 4.37-5.92 3.67-3.188 6.762-3.199 6.79-3.198l.31.007.782-.781 10.808 10.808c3.529 3.528 9.206 3.738 12.928.476L106.48 70.81 60.059 24.39zm-6.463 58.799c-1.35 2.26-2.54 3.974-4.61 6.044-5.239 5.239-9.634 5.53-11.667 3.497-1.643-1.642-2.065-6.106 3.499-11.67 2.079-2.08 3.802-3.272 6.076-4.63.532-.335 1.033-.648 1.52-.95 2.546-1.586 4.745-2.956 6.147-4.57.067-.077.125-.152.19-.228a7.792 7.792 0 0 0 1.785 2.84 8.103 8.103 0 0 0 2.741 1.773c-.06.051-.12.097-.18.15-1.637 1.422-3.034 3.659-4.652 6.249-.28.448-.551 1.022-.849 1.495zM66.543 71.9c-.823.061-3.085.411-5.832 2.297-1.076-.207-2.29-.86-3.14-1.71-.897-.897-1.541-2.17-1.694-3.306 1.825-2.753 2.126-5.086 2.17-5.934l2.087-2.085c.932-.14 3.77-.046 6.284 2.468 2.472 2.472 2.592 5.593 2.374 6.023l-2.248 2.248zm24.165 10.86c-3.195 2.801-7.894 2.624-10.929-.411L68.971 71.54l.854-.854c.953-.953.596-5.12-2.374-8.09-3.122-3.123-7.782-3.458-8.45-2.79l-.882.882-9.6-9.599c-3.038-3.039-3.218-7.74-.419-10.933l.401-.454 42.66 42.66-.453.398zm1.551-1.367l-42.79-42.79 10.656-12.08 44.22 44.22-12.086 10.65z"/></g></svg>