<svg xmlns="http://www.w3.org/2000/svg" width="129" height="129" viewBox="0 0 129 129"><g fill="none" fill-rule="evenodd"><circle cx="64.5" cy="64.5" r="64.5" fill="#F2F9FC"/><g fill-rule="nonzero"><path fill="#44D3A8" stroke="#44D3A8" d="M65.065 101h-.038c-1.6 0-3.214-.106-4.794-.317l.212-1.587a34.82 34.82 0 0 0 4.582.303l.038 1.601zm6.43-.58l-.286-1.576a34.302 34.302 0 0 0 4.487-1.131l.496 1.522a35.914 35.914 0 0 1-4.697 1.185zm-17.558-1.16a35.882 35.882 0 0 1-4.501-1.8l.693-1.443a34.266 34.266 0 0 0 4.3 1.72l-.492 1.523zm28.187-2.567l-.76-1.41a34.45 34.45 0 0 0 3.914-2.467l.943 1.295a36.23 36.23 0 0 1-4.097 2.582zM43.89 94.15a36.475 36.475 0 0 1-3.723-3.102l1.106-1.158a34.703 34.703 0 0 0 3.557 2.964l-.94 1.296zm47.186-4.29l-1.157-1.108a34.823 34.823 0 0 0 2.968-3.553l1.295.942a36.431 36.431 0 0 1-3.106 3.718zm-55.165-3.664a36.158 36.158 0 0 1-2.586-4.095l1.408-.76a34.565 34.565 0 0 0 2.471 3.91l-1.293.945zM97.5 80.6l-1.443-.695c.67-1.39 1.25-2.837 1.724-4.299l1.523.494a36.054 36.054 0 0 1-1.804 4.5zm-66.723-4.427c-.5-1.53-.9-3.111-1.19-4.697l1.576-.288a34.223 34.223 0 0 0 1.136 4.488l-1.522.497zm69.958-6.37l-1.587-.213c.203-1.52.306-3.073.306-4.618v-.15h1.6l.002.137c0 1.63-.108 3.254-.321 4.844zM29.5 65.024l-.5-.038c0-1.602.105-3.202.311-4.768l1.587.21a34.948 34.948 0 0 0-.297 4.546l-1.1.052zm69.38-6.34a34.308 34.308 0 0 0-1.148-4.485l1.521-.501a36.012 36.012 0 0 1 1.2 4.694l-1.574.291zm-66.629-4.275l-1.523-.49a35.913 35.913 0 0 1 1.794-4.504l1.445.693a34.048 34.048 0 0 0-1.716 4.301zm63.034-5.869a34.492 34.492 0 0 0-2.48-3.907l1.29-.947a36.237 36.237 0 0 1 2.595 4.088l-1.405.766zm-58.163-3.734l-1.297-.939a36.386 36.386 0 0 1 3.098-3.725l1.16 1.104a34.812 34.812 0 0 0-2.961 3.56zm51.606-4.803a34.837 34.837 0 0 0-3.565-2.956l.939-1.298a36.419 36.419 0 0 1 3.728 3.093l-1.102 1.161zm-44.01-2.83l-.947-1.292a36.355 36.355 0 0 1 4.09-2.592l.765 1.408a34.515 34.515 0 0 0-3.909 2.476zm35.14-3.276a34.335 34.335 0 0 0-4.303-1.71l.49-1.525a36.006 36.006 0 0 1 4.504 1.79l-.69 1.445zm-25.571-1.642l-.499-1.521c1.53-.501 3.11-.903 4.696-1.195l.289 1.575a34.281 34.281 0 0 0-4.486 1.141zm15.25-1.415a34.866 34.866 0 0 0-4.51-.293h-.114v-1.6l.097-.002h.004c1.59 0 3.177.104 4.73.306l-.207 1.589z"/><path fill="#4B80C8" stroke="#4B80C8" d="M65.027 87.969c-8.474 0-15.37-7.963-15.37-17.75 0-7.972 10.31-22.189 14.742-27.93l.632-.819.634.817c2.46 3.167 14.732 19.395 14.732 27.934 0 9.785-6.895 17.748-15.37 17.748zm.008-43.878c-3.941 5.187-13.777 18.865-13.777 26.128 0 8.904 6.177 16.147 13.77 16.147 7.59 0 13.767-7.243 13.767-16.147.001-6.019-7.27-17.637-13.76-26.128z"/></g></g></svg>