<svg xmlns="http://www.w3.org/2000/svg" width="129" height="129" viewBox="0 0 129 129"><g fill="none" fill-rule="evenodd"><circle cx="64.5" cy="64.5" r="64.5" fill="#F2F9FC"/><g fill-rule="nonzero" stroke="#F2F9FC"><path fill="#4B80C8" d="M91.467 47.243a1.843 1.843 0 0 0-.969-1.318L65.193 33.273a1.807 1.807 0 0 0-1.616 0L38.27 45.925a1.854 1.854 0 0 0-.999 1.617c0 21.966 7.133 34.497 13.118 41.14 6.594 7.322 13.21 9.316 13.489 9.397a1.77 1.77 0 0 0 1.013 0c.278-.08 6.895-2.075 13.489-9.397 5.983-6.643 13.117-19.174 13.117-41.14l-.03-.3c-.094-.554.01.1 0 0zM75.853 86.086c-4.916 5.531-9.896 7.745-11.468 8.344-1.578-.601-6.555-2.817-11.47-8.344-7.688-8.65-11.825-21.582-12.01-37.436l23.48-11.74 23.48 11.74c-.186 15.854-4.322 28.786-12.012 37.436z"/><path fill="#44D3A8" d="M54.818 66.146a1.806 1.806 0 1 0-2.556 2.556l7.23 7.23c.352.354.815.53 1.278.53a1.8 1.8 0 0 0 1.278-.529l14.46-14.46a1.806 1.806 0 1 0-2.556-2.556L60.77 72.1l-5.952-5.953z"/></g></g></svg>