<svg xmlns="http://www.w3.org/2000/svg" width="129" height="129" viewBox="0 0 129 129"><g fill="none" fill-rule="evenodd"><circle cx="64.5" cy="64.5" r="64.5" fill="#F2F9FC"/><path fill="#4B80C8" fill-rule="nonzero" stroke="#F2F9FC" d="M91.388 48.929a2.58 2.58 0 0 0 2.578-2.578v-3.457a2.578 2.578 0 0 0-2.578-2.568h-14.51a2.578 2.578 0 0 0-2.578 2.568v3.457a2.58 2.58 0 0 0 2.578 2.578h1.186V68.87h-1.186a2.58 2.58 0 0 0-2.578 2.58v3.457a2.578 2.578 0 0 0 2.578 2.568h1.196c-.01.04-.01.09-.01.129a7.718 7.718 0 0 1-7.714 7.714 7.718 7.718 0 0 1-7.715-7.714c0-.04 0-.09-.01-.129h1.354a2.578 2.578 0 0 0 2.578-2.568V71.45a2.58 2.58 0 0 0-2.578-2.578h-1.403c-.721-9.788-8.554-17.611-18.342-18.332v-1.452a2.578 2.578 0 0 0-2.568-2.578h-3.457a2.58 2.58 0 0 0-2.578 2.578v14.52a2.58 2.58 0 0 0 2.578 2.578h3.457a2.578 2.578 0 0 0 2.568-2.578v-.82a7.71 7.71 0 0 1 6.084 6.084h-.85a2.58 2.58 0 0 0-2.577 2.578v3.457a2.578 2.578 0 0 0 2.578 2.568h1.007c-.01.04-.01.09-.01.129 0 10.964 8.92 19.873 19.884 19.873 10.963 0 19.873-8.91 19.873-19.873 0-.04 0-.09-.01-.129h1.175a2.578 2.578 0 0 0 2.578-2.568V71.45a2.58 2.58 0 0 0-2.578-2.578h-1.165V48.93h1.165zM41.271 63.22h-2.677V49.472h2.677v13.75zm35.993-17.255v-2.677h13.739v2.677h-13.74zm-33.03 13.808v-6.262c8.159.701 14.668 7.21 15.369 15.36h-6.272c-.662-4.702-4.396-8.436-9.097-9.098zm5.62 14.737v-2.677h13.74v2.677h-13.74zm37.405 3.092c0 9.324-7.585 16.91-16.91 16.91-9.324 0-16.92-7.586-16.92-16.91 0-.04 0-.09-.01-.129h6.263c-.01.04-.01.09-.01.129 0 5.887 4.79 10.677 10.678 10.677 5.886 0 10.677-4.79 10.677-10.677 0-.04 0-.09-.01-.129h6.252c-.01.04-.01.09-.01.129zm3.744-5.769v2.677h-13.74v-2.677h13.74zm-3.744-2.963h-6.232V48.93h6.232v19.94z"/></g></svg>