<svg xmlns="http://www.w3.org/2000/svg" width="129" height="129" viewBox="0 0 129 129"><g fill="none" fill-rule="evenodd"><circle cx="64.5" cy="64.5" r="64.5" fill="#F2F9FC"/><g fill-rule="nonzero"><path fill="#4B80C8" d="M107.477 76.468l-3.853-3.853-13.83-13.83L76.28 45.27 62.45 31.44l-3.852-3.852c-.45-.45-1.18-.45-1.63 0L43.455 41.1c-.45.45-.45 1.18 0 1.63l3.852 3.852L88.48 87.758l3.853 3.853c.45.45 1.18.45 1.63 0l13.513-13.514c.45-.45.45-1.18 0-1.63zM70.799 50.752l13.514 13.514c.45.45 1.18.45 1.63 0l3.037-3.037 12.2 12.201-11.884 11.885L49.75 45.768l11.884-11.884 12.202 12.202-3.038 3.037a1.15 1.15 0 0 0 .001 1.629zm16.55 8.847l-2.222 2.223-11.885-11.884 2.223-2.223L87.35 59.599zm-41.45-17.683l11.884-11.884 2.223 2.222L48.12 44.14l-2.222-2.223zm47.25 47.25l-2.223-2.223L102.81 75.06l2.224 2.224L93.15 89.168z"/><path fill="#44D3A8" d="M65.983 41.28a6.256 6.256 0 0 0-8.837 0 6.256 6.256 0 0 0 0 8.837 6.256 6.256 0 0 0 8.837 0 6.256 6.256 0 0 0 0-8.837zm-7.207 7.207a3.95 3.95 0 0 1 0-5.579 3.95 3.95 0 0 1 5.578 0 3.95 3.95 0 0 1 0 5.579 3.95 3.95 0 0 1-5.578 0zm26.172 29.431a6.257 6.257 0 0 0 8.838 0 6.257 6.257 0 0 0 0-8.838 6.256 6.256 0 0 0-8.837.002 6.255 6.255 0 0 0-.001 8.836zm7.207-7.208a3.95 3.95 0 0 1 0 5.58 3.95 3.95 0 0 1-5.579 0 3.948 3.948 0 0 1 .001-5.579 3.948 3.948 0 0 1 5.578 0z"/><path fill="#4B80C8" d="M60.942 74.424c-5.079-5.079-13.34-5.08-18.416-.004l-.81.81-1.323-1.324a.893.893 0 0 0-1.264 0l-4.76 4.76a.893.893 0 0 0 0 1.263l1.324 1.324-1.112 1.113-4.582-4.583a.896.896 0 0 0-1.265 0l-2.423 2.424a.896.896 0 0 0 0 1.264.896.896 0 0 0 1.264 0l1.792-1.792 13.16 13.16c5.078 5.08 13.34 5.08 18.418 0 5.076-5.075 5.076-13.336-.003-18.415zm-23.985 5.565l-.692-.692 3.496-3.495.692.692-3.496 3.495zm6.833 11.586l-7.945-7.945 7.945-7.945c4.38-4.38 11.504-4.38 15.888.003 4.38 4.38 4.383 11.506.003 15.887-4.38 4.38-11.51 4.38-15.89 0z"/><path fill="#44D3A8" d="M47.282 88.082a6.302 6.302 0 0 1 0-8.902 6.302 6.302 0 0 1 8.902 0 6.302 6.302 0 0 1 0 8.902 6.302 6.302 0 0 1-8.902 0zm7.638-7.638a4.512 4.512 0 0 0-6.374 0 4.512 4.512 0 0 0 0 6.374 4.512 4.512 0 0 0 6.374 0 4.512 4.512 0 0 0 0-6.374z"/></g></g></svg>